<svg id="filled_outline" height="512" viewBox="0 0 512 512" width="512" xmlns="http://www.w3.org/2000/svg" data-name="filled outline"><path d="m40 216 216-168 224 184v256h-440z" fill="#f0d9b4"/><path d="m200 152h112v96h-112z" fill="#96cffa"/><path d="m264 488h216v-264l-108-88-108 88z" fill="#f0d9b4"/><path d="m296 376v112h-256v-112l128-88z" fill="#f0d9b4"/><path d="m372 116-116-92-232 184v24h24l208-168 89.955 72.656z" fill="#ed6445"/><path d="m176 376h56v112h-56z" fill="#b36f42"/><g fill="#96cffa"><path d="m104 376h40v40h-40z"/><path d="m360 384h32v64h-32z"/><path d="m336 240h72v64h-72z"/></g><path d="m372 157.692-92 74.308h-24v-24l116-92 116 92v24h-24z" fill="#f28868"/><path d="m448 384h-152l16-40h120z" fill="#ed6445"/><path d="m40 360h32v64h-32z" fill="#ebc99b"/><path d="m264 360h32v64h-32z" fill="#ebc99b"/><path d="m168 304 120 80h24v-24l-144-96-144 96v24h24z" fill="#ed6445"/><path d="m143.99658 367.99463h-40a7.99977 7.99977 0 0 0 -8 8v40a7.99977 7.99977 0 0 0 8 8h40a7.99977 7.99977 0 0 0 8-8v-40a7.99977 7.99977 0 0 0 -8-8zm-8 40h-24v-24h24z"/><path d="m407.99658 231.99463h-72a7.99977 7.99977 0 0 0 -8 8v64a7.99977 7.99977 0 0 0 8 8h72a7.99977 7.99977 0 0 0 8-8v-64a7.99977 7.99977 0 0 0 -8-8zm-64 16h20v48h-20zm56 48h-20v-48h20z"/><circle cx="207.997" cy="423.995" r="8"/><path d="m492.96777 201.72656-232-184a7.99952 7.99952 0 0 0 -9.94238 0l-232 184a8 8 0 0 0 -3.02881 6.26807v24a7.99977 7.99977 0 0 0 8 8h8v105.052l-12.4375 8.29175a7.99944 7.99944 0 0 0 -3.5625 6.65625v24a7.99977 7.99977 0 0 0 8 8h8v96a7.99977 7.99977 0 0 0 8 8h440a7.99977 7.99977 0 0 0 8-8v-248a7.99977 7.99977 0 0 0 8-8v-24a8 8 0 0 0 -3.02881-6.26807zm-12.97119 10.13379v12.13428h-13.17285l-89.80029-72.53125a8.00165 8.00165 0 0 0 -10.05371 0l-89.8003 72.53125h-13.17285v-12.13428l108-85.65527zm-237.57812 92.13428h13.57812v9.052zm61.22546-144-39.64734 31.44446v-31.44446zm-55.64734 32h-40v-32h40zm-40 16h40v32h-40zm-176 3.86572 224-177.65527 103.12561 81.78955-13.12488 10.40942-84.97387-68.63305a8.00165 8.00165 0 0 0 -10.05371 0l-205.8003 166.22363h-13.17285zm21.02686 26.35791 202.97314-163.93994 77.15242 62.31568-14.2779 11.324a7.988 7.988 0 0 0 -6.87451-3.92334h-112a7.99977 7.99977 0 0 0 -8 8v96a7.99977 7.99977 0 0 0 8 8h56v32h-37.57813l-45.98438-30.65625a7.99771 7.99771 0 0 0 -8.875 0l-45.98437 30.65625h-69.57813v-48a8.00066 8.00066 0 0 0 5.02686-1.7764zm-5.02686 65.77637h45.57813l-45.57813 30.3855zm-16 60.28125 136-90.6665 136 90.6665v11.71875h-13.57758l-117.98492-78.65625a7.99771 7.99771 0 0 0 -8.875 0l-117.98486 78.65625h-13.57764zm288 11.71875v-16a7.98882 7.98882 0 0 0 -3.2243-6.39917l.64032-1.60083h109.16748l9.6001 24zm48 16h16v48h-16zm-80 24h-16v-33.052l11.5625 7.70825a7.996 7.996 0 0 0 4.4375 1.34375zm-64 64h-40v-96h40zm8-112h-56a7.99977 7.99977 0 0 0 -8 8v104h-88v-107.71875l88-58.6665 88 58.6665v107.71875h-16v-104a7.99977 7.99977 0 0 0 -8-8zm-179.5625 22.65625 11.5625-7.70825v33.052h-16v-24a7.996 7.996 0 0 0 4.4375-1.34375zm-4.4375 41.34375h16v48h-16zm224 48v-48h16v48zm200 0h-168v-88h16v24h16v-24h16v56a7.99977 7.99977 0 0 0 8 8h32a7.99977 7.99977 0 0 0 8-8v-56h16v24h16v-24h16a8.0001 8.0001 0 0 0 7.42774-10.97119l-16-40a7.99976 7.99976 0 0 0 -7.42774-5.02881h-120a8.00025 8.00025 0 0 0 -7.42773 5.02881l-1.39105 3.47741-31.18122-20.78747v-83.71875h8a8.00066 8.00066 0 0 0 5.02686-1.77637l86.97314-70.24756 86.97315 70.24756a8.00063 8.00063 0 0 0 5.02685 1.77637h8z"/></svg>